<svg width="54" height="54" viewBox="0 0 54 54" fill="none" xmlns="http://www.w3.org/2000/svg">
<g clip-path="url(#clip0_0_873)">
<path fill-rule="evenodd" clip-rule="evenodd" d="M47.4052 17.0716C45.6241 17.0716 44.1821 18.4748 44.1821 20.2053V33.6197C44.1821 35.3502 45.6241 36.7534 47.4052 36.7534C49.183 36.7534 50.625 35.3502 50.625 33.6197V20.2053C50.625 18.4752 49.183 17.0716 47.4052 17.0716ZM6.59813 17.0716C4.81697 17.0716 3.375 18.4748 3.375 20.2053V33.6197C3.375 35.3502 4.81697 36.7534 6.59813 36.7534C8.37591 36.7534 9.81787 35.3502 9.81787 33.6197V20.2053C9.81787 18.4752 8.37591 17.0716 6.59813 17.0716ZM12.1994 17.0716H11.9677V40.0651C11.9677 41.8906 13.4911 43.3768 15.3702 43.3768H17.8234C17.7386 43.6531 17.693 43.9421 17.693 44.2467V50.8668C17.693 52.5973 19.1384 54.0005 20.9161 54.0005C22.6939 54.0005 24.1393 52.5973 24.1393 50.8668V44.2463C24.1393 43.9417 24.0903 43.6527 24.0089 43.3764H29.9919C29.9105 43.6527 29.8645 43.9417 29.8645 44.2463V50.8664C29.8645 52.5969 31.3065 54.0001 33.0843 54.0001C34.8654 54.0001 36.3108 52.5969 36.3108 50.8664V44.2463C36.3108 43.9417 36.2618 43.6527 36.177 43.3764H38.6336C40.5127 43.3764 42.0327 41.8906 42.0327 40.0647V17.0716H12.1994ZM34.3955 4.52086L34.9958 3.6383L35.5961 2.7684L36.9335 0.812584C37.0997 0.571271 37.0313 0.247271 36.7833 0.0886463C36.5386 -0.0733537 36.2028 -0.00669748 36.0429 0.234615L34.0006 3.20968L33.3876 4.1049C31.4466 3.37168 29.2836 2.96204 27 2.96204C24.7198 2.96204 22.5534 3.37168 20.6124 4.1049L20.0024 3.20968L19.3987 2.33007L17.9634 0.234615C17.7972 -0.00669748 17.4644 -0.0699787 17.2163 0.0886463C16.9716 0.247271 16.9033 0.571271 17.0661 0.812584L18.4035 2.7684L19.0038 3.6383L19.6075 4.52086C15.05 6.58763 11.9673 10.5026 11.9673 14.9825H42.0318C42.0322 10.5026 38.9496 6.58805 34.3955 4.52086ZM20.5571 10.8009C19.6665 10.8009 18.9456 10.0993 18.9456 9.23236C18.9456 8.36541 19.6665 7.66721 20.5571 7.66721C21.4477 7.66721 22.1687 8.36583 22.1687 9.23236C22.1687 10.0993 21.4477 10.8009 20.5571 10.8009ZM33.4429 10.8009C32.5523 10.8009 31.8313 10.0993 31.8313 9.23236C31.8313 8.36541 32.5523 7.66721 33.4429 7.66721C34.3335 7.66721 35.0544 8.36583 35.0544 9.23236C35.0544 10.0993 34.3335 10.8009 33.4429 10.8009Z" fill="white"/>
</g>
<defs>
<clipPath id="clip0_0_873">
<rect width="54" height="54" fill="white"/>
</clipPath>
</defs>
</svg>
