<svg width="54" height="54" viewBox="0 0 54 54" fill="none" xmlns="http://www.w3.org/2000/svg">
<g clip-path="url(#clip0_0_868)">
<path d="M44.4757 35.3405C42.9827 33.1989 42.2368 30.786 42.2368 28.104C42.2368 25.6594 42.9408 23.4196 44.3459 21.3863C45.1031 20.283 46.3366 19.0069 48.0457 17.5571C46.9209 16.1729 45.796 15.0912 44.6703 14.3121C42.6367 12.9061 40.3324 12.2031 37.7582 12.2031C36.2225 12.2031 34.3507 12.5707 32.1445 13.3068C30.0242 14.0423 28.4772 14.4105 27.5041 14.4105C26.7681 14.4105 25.2756 14.0862 23.0256 13.4368C20.7541 12.7877 18.8393 12.4634 17.2817 12.4634C13.5606 12.4634 10.4885 14.0213 8.06552 17.1363C5.62086 20.295 4.3983 24.3405 4.3983 29.2733C4.3983 34.5088 5.98878 39.9494 9.16885 45.5961C12.3921 51.1994 15.6482 54.0014 18.9366 54.0014C20.0399 54.0014 21.4679 53.6335 23.22 52.8979C24.9727 52.1846 26.5086 51.8271 27.8285 51.8271C29.2343 51.8271 30.8679 52.1732 32.7284 52.8652C34.6969 53.5569 36.2117 53.9031 37.2716 53.9031C40.0407 53.9031 42.8211 51.7828 45.6115 47.5426C47.4284 44.8384 48.7591 42.1343 49.6028 39.4298C47.6774 38.8452 45.9686 37.4823 44.4757 35.3405Z" fill="white"/>
<path d="M33.4422 10.2546C34.8054 8.89164 35.8114 7.39867 36.4606 5.77636C37.0877 4.15382 37.4007 2.68245 37.4007 1.36259C37.4007 1.27632 37.396 1.168 37.3843 1.03809C37.3746 0.908282 37.3688 0.800416 37.3688 0.713805C37.3469 0.648789 37.3201 0.529784 37.2878 0.356902C37.2556 0.184021 37.2286 0.0650153 37.2065 0C33.3989 0.887482 30.6947 2.48831 29.0936 4.80329C27.4716 7.13986 26.6274 9.91961 26.5624 13.1431C28.0119 13.0132 29.1364 12.8296 29.9372 12.5915C31.1064 12.202 32.2733 11.4228 33.4422 10.2546Z" fill="white"/>
</g>
<defs>
<clipPath id="clip0_0_868">
<rect width="54" height="54" fill="white"/>
</clipPath>
</defs>
</svg>
