<svg width="70" height="70" viewBox="54 50 70 70" fill="none" xmlns="http://www.w3.org/2000/svg">
<circle cx="89" cy="85" r="35" fill="#F6F6F6"/>
<path d="M95.3346 74.2467V72.1667C95.3346 71.6201 94.8812 71.1667 94.3346 71.1667C93.7879 71.1667 93.3346 71.6201 93.3346 72.1667V74.1667H84.6679V72.1667C84.6679 71.6201 84.2146 71.1667 83.6679 71.1667C83.1212 71.1667 82.6679 71.6201 82.6679 72.1667V74.2467C79.0679 74.5801 77.3212 76.7267 77.0546 79.9134C77.0279 80.3001 77.3479 80.6201 77.7212 80.6201H100.281C100.668 80.6201 100.988 80.2867 100.948 79.9134C100.681 76.7267 98.9346 74.5801 95.3346 74.2467Z" fill="#5A9352"/>
<path d="M98.3333 89.5C95.3867 89.5 93 91.8867 93 94.8333C93 95.8333 93.28 96.78 93.7733 97.58C94.6933 99.1267 96.3867 100.167 98.3333 100.167C100.28 100.167 101.973 99.1267 102.893 97.58C103.387 96.78 103.667 95.8333 103.667 94.8333C103.667 91.8867 101.28 89.5 98.3333 89.5ZM101.093 94.26L98.2533 96.8867C98.0667 97.06 97.8133 97.1533 97.5733 97.1533C97.32 97.1533 97.0667 97.06 96.8667 96.86L95.5467 95.54C95.16 95.1533 95.16 94.5133 95.5467 94.1267C95.9333 93.74 96.5733 93.74 96.96 94.1267L97.6 94.7667L99.7333 92.7933C100.133 92.42 100.773 92.4467 101.147 92.8467C101.52 93.2467 101.493 93.8733 101.093 94.26Z" fill="#E24701"/>
<path d="M99.6667 82.6211H78.3333C77.6 82.6211 77 83.2211 77 83.9544V92.1678C77 96.1678 79 98.8344 83.6667 98.8344H90.24C91.16 98.8344 91.8 97.9411 91.5067 97.0744C91.24 96.3011 91.0133 95.4478 91.0133 94.8344C91.0133 90.7944 94.3067 87.5011 98.3467 87.5011C98.7333 87.5011 99.12 87.5278 99.4933 87.5944C100.293 87.7144 101.013 87.0878 101.013 86.2878V83.9678C101 83.2211 100.4 82.6211 99.6667 82.6211ZM85.28 93.7811C85.0267 94.0211 84.68 94.1678 84.3333 94.1678C83.9867 94.1678 83.64 94.0211 83.3867 93.7811C83.1467 93.5278 83 93.1811 83 92.8344C83 92.4878 83.1467 92.1411 83.3867 91.8878C83.52 91.7678 83.6533 91.6744 83.8267 91.6078C84.32 91.3944 84.9067 91.5144 85.28 91.8878C85.52 92.1411 85.6667 92.4878 85.6667 92.8344C85.6667 93.1811 85.52 93.5278 85.28 93.7811ZM85.28 89.1144C85.2133 89.1678 85.1467 89.2211 85.08 89.2744C85 89.3278 84.92 89.3678 84.84 89.3944C84.76 89.4344 84.68 89.4611 84.6 89.4744C84.5067 89.4878 84.4133 89.5011 84.3333 89.5011C83.9867 89.5011 83.64 89.3544 83.3867 89.1144C83.1467 88.8611 83 88.5144 83 88.1678C83 87.8211 83.1467 87.4744 83.3867 87.2211C83.6933 86.9144 84.16 86.7678 84.6 86.8611C84.68 86.8744 84.76 86.9011 84.84 86.9411C84.92 86.9678 85 87.0078 85.08 87.0611C85.1467 87.1144 85.2133 87.1678 85.28 87.2211C85.52 87.4744 85.6667 87.8211 85.6667 88.1678C85.6667 88.5144 85.52 88.8611 85.28 89.1144ZM89.9467 89.1144C89.6933 89.3544 89.3467 89.5011 89 89.5011C88.6533 89.5011 88.3067 89.3544 88.0533 89.1144C87.8133 88.8611 87.6667 88.5144 87.6667 88.1678C87.6667 87.8211 87.8133 87.4744 88.0533 87.2211C88.56 86.7278 89.4533 86.7278 89.9467 87.2211C90.1867 87.4744 90.3333 87.8211 90.3333 88.1678C90.3333 88.5144 90.1867 88.8611 89.9467 89.1144Z" fill="#5A9352"/>
</svg>
