<svg width="70" height="70" viewBox="54 50 70 70" fill="none" xmlns="http://www.w3.org/2000/svg">
<circle cx="89" cy="85" r="35" fill="#F6F6F6"/>
<path d="M102.292 93.5001V94.8334C102.292 97.0334 102.292 98.8334 98.2917 98.8334H79.625C75.625 98.8334 75.625 97.0334 75.625 94.8334V93.5001C75.625 92.7667 76.225 92.1667 76.9583 92.1667H100.958C101.692 92.1667 102.292 92.7667 102.292 93.5001Z" fill="#E24701"/>
<path d="M92.2127 76.4115C92.2794 76.1448 92.3194 75.8915 92.3327 75.6115C92.3727 74.0648 91.426 72.7048 89.9327 72.3048C87.6927 71.6915 85.666 73.3715 85.666 75.5048C85.666 75.8248 85.706 76.1182 85.786 76.4115C80.9727 77.4382 77.3594 81.7182 77.3594 86.8382V88.8382C77.3594 89.5715 77.9594 90.1715 78.6927 90.1715H99.2927C100.026 90.1715 100.626 89.5715 100.626 88.8382V86.8382C100.626 81.7182 97.026 77.4515 92.2127 76.4115ZM92.9994 85.1715H84.9994C84.4527 85.1715 83.9994 84.7182 83.9994 84.1715C83.9994 83.6248 84.4527 83.1715 84.9994 83.1715H92.9994C93.546 83.1715 93.9994 83.6248 93.9994 84.1715C93.9994 84.7182 93.546 85.1715 92.9994 85.1715Z" fill="#5A9352"/>
</svg>
