<svg width="70" height="70" viewBox="54 50 70 70" fill="none" xmlns="http://www.w3.org/2000/svg">
<circle cx="89" cy="85" r="35" fill="#F6F6F6"/>
<path d="M87.8322 96.1946C94.467 96.1946 99.8455 90.8161 99.8455 84.1813C99.8455 77.5465 94.467 72.168 87.8322 72.168C81.1974 72.168 75.8188 77.5465 75.8188 84.1813C75.8188 90.8161 81.1974 96.1946 87.8322 96.1946Z" fill="#5A9352"/>
<path d="M102.472 94.7667C102.032 93.9533 101.099 93.5 99.8457 93.5C98.8991 93.5 98.0857 93.8867 97.6057 94.5533C97.1257 95.22 97.0191 96.1133 97.3124 97.0067C97.8857 98.74 98.8857 99.1267 99.4324 99.1933C99.5124 99.2067 99.5924 99.2067 99.6857 99.2067C100.272 99.2067 101.179 98.9533 102.059 97.6333C102.766 96.6067 102.899 95.58 102.472 94.7667Z" fill="#E24701"/>
</svg>
