<svg width="176" height="187" viewBox="0 0 176 187" fill="none" xmlns="http://www.w3.org/2000/svg">
<path d="M36.654 79.8486C33.3709 83.6579 27.1952 94.9258 29.9622 96.2298C32.6715 97.5391 39.4911 86.3857 40.6598 82.768C41.7147 79.1606 38.1598 78.0427 36.654 79.8486Z" fill="#E24701"/>
<path d="M77.1159 112.739C73.8328 116.548 67.6572 127.816 70.4242 129.12C73.1334 130.429 79.953 119.276 81.1234 115.658C82.2344 112.046 78.6795 110.928 77.1159 112.739Z" fill="#E24701"/>
<path d="M68.5684 158.826C65.287 162.635 59.1096 173.903 61.8765 175.205C64.5874 176.514 71.407 165.361 72.5757 161.743C73.6936 158.188 70.137 157.07 68.5684 158.826Z" fill="#E24701"/>
<path d="M97.5834 6.27789C94.302 10.087 88.1247 21.3551 90.8917 22.6591C93.6009 23.9684 100.422 12.8149 101.591 9.19716C102.709 5.6406 99.0945 4.52973 97.5834 6.27789Z" fill="#E24701"/>
<path d="M159.235 41.0463C155.951 44.8556 149.776 56.1235 152.541 57.4277C155.252 58.7368 162.072 47.5834 163.24 43.9657C164.353 40.353 160.796 39.2353 159.235 41.0463Z" fill="#E24701"/>
<path d="M48.4798 104.277C45.1984 108.087 39.0211 119.355 41.788 120.659C44.499 121.968 51.3185 110.814 52.4873 107.197C53.5473 103.645 49.9925 102.529 48.4798 104.277Z" fill="#E24701"/>
<path d="M60.9056 77.4203C58.9421 81.1665 53.8877 88.9358 56.884 90.219C59.8785 91.5024 64.6371 81.1111 65.8592 78.0639C67.1409 75.0695 63.0198 73.4276 60.9056 77.4203Z" fill="#E24701"/>
<path d="M118.05 124.801C116.087 128.547 111.033 136.318 114.029 137.6C117.023 138.883 121.782 128.492 123.003 125.446C124.281 122.394 120.165 120.81 118.05 124.801Z" fill="#E24701"/>
<path d="M91.0103 78.6055C89.0469 82.3534 83.9926 90.1227 86.9888 91.4059C89.9834 92.6893 94.7419 82.298 95.9624 79.2509C97.2458 76.2564 93.0669 74.6197 91.0103 78.6055Z" fill="#E24701"/>
<path d="M81.7491 43.1195C79.7855 46.8657 74.7312 54.635 77.7274 55.9182C80.722 57.2016 85.4805 46.8103 86.7026 43.7631C87.9844 40.7687 83.8632 39.1268 81.7491 43.1195Z" fill="#E24701"/>
<path d="M14.7769 111.648C12.8135 115.396 7.75915 123.166 10.7537 124.449C13.75 125.732 18.5085 115.341 19.729 112.294C21.0124 109.299 16.8912 107.657 14.7769 111.648Z" fill="#E24701"/>
<path d="M95.3872 139.004C93.4238 142.752 88.3695 150.521 91.3657 151.804C94.3603 153.088 99.1189 142.696 100.339 139.649C101.68 136.65 97.5015 135.013 95.3872 139.004Z" fill="#E24701"/>
<path d="M56.9598 40.8716C54.9964 44.6195 49.942 52.3888 52.9382 53.672C55.9328 54.9554 60.6914 44.5641 61.9135 41.5169C63.253 38.5173 59.074 36.8806 56.9598 40.8716Z" fill="#E24701"/>
<path d="M46.296 127.847C44.3326 131.595 39.2783 139.365 42.2745 140.648C45.2691 141.931 50.0277 131.54 51.2498 128.493C52.4702 125.446 48.4103 123.856 46.296 127.847Z" fill="#E24701"/>
<path d="M121.115 65.8057C119.152 69.5536 114.097 77.3228 117.092 78.6062C120.088 79.8878 124.847 69.4982 126.067 66.4511C127.351 63.4565 123.234 61.8707 121.115 65.8057Z" fill="#E24701"/>
<path d="M66.5345 95.7348C64.4979 100.583 63.2861 106.277 65.7092 106.979C68.1339 107.68 72.5969 95.9355 75.0697 90.8178C77.5476 85.7562 71.1682 84.6082 66.5345 95.7348Z" fill="#E24701"/>
<path d="M105.019 103.589C102.983 108.438 101.771 114.131 104.195 114.833C106.62 115.534 111.083 103.788 113.556 98.6701C116.092 93.605 109.649 92.4045 105.019 103.589Z" fill="#E24701"/>
<path d="M16.7648 143.764C14.728 148.612 13.5164 154.307 15.9411 155.008C18.3642 155.71 22.8287 143.963 25.3015 138.846C27.7796 133.786 21.3984 132.636 16.7648 143.764Z" fill="#E24701"/>
<path d="M105.547 43.9549C103.51 48.8036 102.298 54.4971 104.723 55.1986C107.146 55.9002 111.61 44.1538 114.083 39.0361C116.561 33.9762 110.18 32.8267 105.547 43.9549Z" fill="#E24701"/>
<path d="M96.8072 168.006C94.7705 172.853 93.5588 178.548 95.9835 179.249C98.4083 179.951 102.871 168.205 105.344 163.087C107.822 158.027 101.441 156.877 96.8072 168.006Z" fill="#E24701"/>
</svg>
