<svg width="36" height="36" viewBox="0 0 36 36" fill="none" xmlns="http://www.w3.org/2000/svg">
<circle cx="18" cy="18" r="18" fill="#F6F6F6"/>
<g clip-path="url(#clip0_3217_499)">
<path d="M18 15.6277C18 11.9459 16.3195 8.96094 14.25 8.96094C12.1797 8.96094 10.5 11.9459 10.5 15.6277C10.5 17.2299 11.51 18.5875 12.9235 19.1237L12.5833 27.2942C12.5833 28.2147 13.3295 28.9609 14.25 28.9609C15.1705 28.9609 15.9167 28.2147 15.9167 27.2942L15.5765 19.1244C16.991 18.5875 18 17.2299 18 15.6277ZM25.5 15.0027L25.2917 8.96094H24.25L24.0417 15.0027H23.2083L23 8.96094H21.75L21.5417 15.0027H20.7083L20.5 8.96094H19.4583L19.25 15.0027C19.25 16.2737 20.0118 17.3625 21.1022 17.8509L20.7083 27.2942C20.7083 28.2147 21.4545 28.9609 22.375 28.9609C23.2955 28.9609 24.0417 28.2147 24.0417 27.2942L23.6478 17.8509C24.7382 17.3625 25.5 16.2737 25.5 15.0027Z" fill="#5A9352"/>
</g>
<defs>
<clipPath id="clip0_3217_499">
<rect width="20" height="20" fill="white" transform="translate(8 8.96094)"/>
</clipPath>
</defs>
</svg>
