<?xml version="1.0" encoding="UTF-8"?><svg id="Layer_1" xmlns="http://www.w3.org/2000/svg" viewBox="0 0 57 57"><path d="M32.65,37.74c-.89,2.53-4.18,3.71-7.6,2.75,0,0,0,0,0,.01l-.08-.03c-6.38-2.08-14.04-8.8-13.58-9.21.22-.04,8.01,6.21,14.24,7.57l.4-1.01c-5.82-1.72-13.07-7.7-12.64-8.12.24-.04,7.62,5.47,13.29,6.47.13-.33.26-.67.4-1-5.26-1.37-12.11-6.62-11.7-7.02.26-.05,7.24,4.73,12.34,5.39l.4-1c-4.71-1.02-11.14-5.52-10.75-5.93.28-.05,6.85,3.99,11.4,4.29h.06c1.11.29,2.1.92,2.84,1.81.74.88,1.18,1.97,1.27,3.11,4.5.2,8.98-.64,13.11-2.46,4.12-1.82,7.77-4.56,10.65-8.02-.79-7.06-4.2-13.56-9.56-18.22C41.77,2.45,34.85-.03,27.75.17c-7.1.2-13.87,3.05-18.96,8.01C3.7,13.13.65,19.81.26,26.9c3.38-2.61,7.24-4.52,11.36-5.63,4.12-1.11,8.42-1.38,12.65-.81.89-3.59,6.02-5.67,10.95-3.26,1.6.72,3.05,1.74,4.28,2.99,3.04,3.04,4.67,7.12,2.55,8.88-3.07,2.12-9.3.85-12.54.29-1.57-.45-2.94-1.4-3.93-2.71-.98-1.3-1.52-2.89-1.53-4.52-4.41-.28-8.82.44-12.92,2.1-4.09,1.66-7.76,4.22-10.73,7.49.8,6.96,4.14,13.38,9.39,18.01,5.25,4.64,12.03,7.16,19.04,7.09,7-.07,13.73-2.73,18.89-7.48,5.16-4.74,8.37-11.23,9.03-18.2-6.84,5.28-15.5,7.64-24.08,6.57" fill="#5a9352"/></svg>