<svg width="70" height="70" viewBox="0 0 70 70" fill="none" xmlns="http://www.w3.org/2000/svg">
<circle cx="35" cy="35" r="35" fill="#242424"/>
<path d="M29.6554 35.5932C29.6554 35.0465 30.1088 34.5932 30.6554 34.5932H37.9621V23.3132C37.9487 22.6732 37.4421 22.1665 36.8021 22.1665C28.9487 22.1665 23.4688 27.6465 23.4688 35.4998C23.4688 43.3532 28.9487 48.8332 36.8021 48.8332C37.4287 48.8332 37.9487 48.3265 37.9487 47.6865V36.5798H30.6554C30.0954 36.5932 29.6554 36.1398 29.6554 35.5932Z" fill="white"/>
<path d="M46.5398 34.8869L42.7531 31.0869C42.3665 30.7002 41.7265 30.7002 41.3398 31.0869C40.9531 31.4735 40.9531 32.1135 41.3398 32.5002L43.4198 34.5802H37.9531V36.5802H43.4065L41.3265 38.6602C40.9398 39.0469 40.9398 39.6869 41.3265 40.0735C41.5265 40.2735 41.7798 40.3669 42.0331 40.3669C42.2865 40.3669 42.5398 40.2735 42.7398 40.0735L46.5265 36.2735C46.9265 35.9002 46.9265 35.2735 46.5398 34.8869Z" fill="#E24701"/>
</svg>
