<svg width="805" height="174" viewBox="0 0 805 174" fill="none" xmlns="http://www.w3.org/2000/svg">
<path opacity="0.07" d="M47.4861 66.2032C47.4861 71.9801 45.4064 76.9482 41.247 81.1076C37.3187 85.0359 32.3506 87 26.3426 87C18.0239 87 11.5538 84.1116 6.93227 78.3347C2.31076 72.3267 0 65.3944 0 57.5378C0 45.5219 3.58167 34.6614 10.745 24.9562C17.9084 15.0199 26.1116 6.70119 35.3546 0L47.1394 11.7849C45.2908 13.8645 42.9801 16.2908 40.2072 19.0637C37.4343 21.6056 35.008 24.3785 32.9283 27.3825C31.0797 30.3865 30.1554 33.3904 30.1554 36.3944C30.1554 39.3984 31.5418 42.0558 34.3147 44.3665C37.3187 46.6773 40.2072 49.4502 42.9801 52.6853C45.9841 55.9203 47.4861 60.4263 47.4861 66.2032ZM115.076 66.2032C115.076 71.9801 112.996 76.9482 108.837 81.1076C104.908 85.0359 99.9402 87 93.9323 87C85.6135 87 79.1434 84.1116 74.5219 78.3347C69.9004 72.3267 67.5896 65.3944 67.5896 57.5378C67.5896 45.5219 71.1713 34.6614 78.3347 24.9562C85.498 15.0199 93.7012 6.70119 102.944 0L114.729 11.7849C112.88 13.8645 110.57 16.2908 107.797 19.0637C105.024 21.6056 102.598 24.3785 100.518 27.3825C98.6693 30.3865 97.745 33.3904 97.745 36.3944C97.745 39.3984 99.1315 42.0558 101.904 44.3665C104.908 46.6773 107.797 49.4502 110.57 52.6853C113.574 55.9203 115.076 60.4263 115.076 66.2032Z" fill="#797979"/>
<path opacity="0.07" d="M756.59 153.203C756.59 158.98 758.67 163.948 762.829 168.108C766.757 172.036 771.726 174 777.734 174C786.052 174 792.522 171.112 797.144 165.335C801.765 159.327 804.076 152.394 804.076 144.538C804.076 132.522 800.494 121.661 793.331 111.956C786.168 102.02 777.965 93.7012 768.722 87L756.937 98.7849C758.785 100.865 761.096 103.291 763.869 106.064C766.642 108.606 769.068 111.378 771.148 114.382C772.996 117.386 773.921 120.39 773.921 123.394C773.921 126.398 772.534 129.056 769.761 131.367C766.757 133.677 763.869 136.45 761.096 139.685C758.092 142.92 756.59 147.426 756.59 153.203ZM689 153.203C689 158.98 691.08 163.948 695.24 168.108C699.168 172.036 704.136 174 710.144 174C718.463 174 724.933 171.112 729.554 165.335C734.176 159.327 736.487 152.394 736.487 144.538C736.487 132.522 732.905 121.661 725.742 111.956C718.578 102.02 710.375 93.7012 701.132 87L689.347 98.7849C691.196 100.865 693.506 103.291 696.279 106.064C699.052 108.606 701.479 111.378 703.558 114.382C705.407 117.386 706.331 120.39 706.331 123.394C706.331 126.398 704.945 129.056 702.172 131.367C699.168 133.677 696.279 136.45 693.506 139.685C690.502 142.92 689 147.426 689 153.203Z" fill="#797979"/>
</svg>
